<svg xmlns="http://www.w3.org/2000/svg" xmlns:xlink="http://www.w3.org/1999/xlink" version="1.1" x="0px" y="0px" viewBox="0 0 225.775 244.50625" style="enable-background:new 0 0 225.775 195.605;" xml:space="preserve"><g><path d="M129.645,51.493c-0.078,0.301,0.617,0.647,0.617,0.959c0,0.31,0.109,0.445,0.188,0.745   c0.077,0.293-0.055,0.537,0.093,0.817c0.14,0.265,0.487,0.278,0.685,0.53c0.186,0.235,0.17,0.543,0.402,0.764   c0.217,0.207,0.171,0.68,0.426,0.874c0.239,0.182,0.198,0.809,0.469,0.979c0.256,0.159,1.086-0.696,1.368-0.549   c0.269,0.14,0.122,1.12,0.412,1.248c0.278,0.123,0.448,0.585,0.745,0.696c0.285,0.107,0.639,0.116,0.939,0.212   c0.291,0.092,0.61,0.18,0.915,0.261c0.295,0.079,0.874-1.014,1.181-0.945c0.299,0.066,0.525,0.387,0.834,0.442   c0.302,0.054,0.494,0.786,0.806,0.83c0.304,0.043,0.579,0.475,0.892,0.507c0.307,0.032,0.684-0.614,0.997-0.592   c0.307,0.021,0.605,0.305,0.918,0.315c0.308,0.01,0.625-0.379,0.938-0.379c0.314,0,0.649,0.914,0.957,0.904   c0.313-0.011,0.583-1.008,0.89-1.029c0.313-0.021,0.609-0.079,0.916-0.11c0.313-0.032,0.764,1.021,1.067,0.979   c0.311-0.044,0.612-0.288,0.913-0.342c0.31-0.055,0.646-0.088,0.944-0.154c0.308-0.068,0.677,0.004,0.971-0.075   c0.305-0.082,0.368-1.03,0.659-1.122c0.301-0.096,0.683,0.051,0.968-0.056c0.296-0.111,0.391-0.692,0.668-0.814   c0.273-0.12,0.394-0.481,0.628-0.641c1.211,0.849,2.387,1.46,2.896,1.594c1.759,0.911,3.604,2.037,5.044,3.232   c7.054,2.972-5.498,7.641-4.109,9.807c0.346,1.046,2.917,1.471,6.824,0.113c1.792-0.904,4.693-1.78,6.08-5.936   c0.113-0.481,0.175-0.946,0.207-1.4c0.008-0.001,0.018-0.009,0.025-0.008c0.304,0.014,0.586-0.011,0.896-0.011   c0.311,0,0.646,1.205,0.951,1.191c0.311-0.014,0.623-0.286,0.926-0.313c0.311-0.028,0.658,0.117,0.959,0.076   c0.309-0.043,0.463-1.026,0.76-1.083c0.307-0.058,0.658,0.177,0.95,0.105c0.304-0.075,0.432-0.679,0.718-0.768   c0.299-0.093,0.627,0.023,0.906-0.085c0.293-0.112,0.618-0.069,0.887-0.196c0.286-0.136,0.516-0.306,0.771-0.457   c0.273-0.162,1.041,0.399,1.275,0.221c0.256-0.193,0.068-0.93,0.273-1.14c0.225-0.228,0.666-0.286,0.826-0.531   c0.143-0.219,0.469-0.418,0.635-0.639c0.162,0.146,0.326,0.297,0.489,0.297c0.314,0,0.63-0.58,0.939-0.588   c0.314-0.008,0.633,0.064,0.942,0.049c0.312-0.016,0.581-0.645,0.887-0.668c0.314-0.025,0.688,0.678,0.993,0.646   c0.313-0.032,0.464-1.34,0.769-1.38c0.31-0.041,0.746,0.896,1.048,0.848c0.309-0.05,0.713,0.396,1.014,0.339   c0.309-0.059,0.442-0.966,0.74-1.033c0.308-0.068,0.521-0.443,0.816-0.521c0.305-0.079,0.765,0.453,1.057,0.366   c0.303-0.091,0.891,0.661,1.179,0.562c0.298-0.103,0.339-0.955,0.621-1.067c0.294-0.116,0.474-0.485,0.749-0.611   c0.289-0.131,0.678-0.042,0.943-0.183c0.281-0.148,0.561-0.302,0.816-0.46c0.27-0.168,0.286-0.682,0.525-0.86   c0.257-0.192,0.406-0.443,0.624-0.646c0.235-0.22,0.89-0.019,1.078-0.249c0.202-0.25-0.59-1.084-0.446-1.346   c0.152-0.28,1.071-0.133,1.151-0.424c0.083-0.301-0.261-0.613-0.261-0.924c0-0.31-0.271-0.452-0.353-0.751   c-0.079-0.291-0.303-0.356-0.455-0.635c-0.143-0.261-0.131-0.481-0.334-0.731c-0.188-0.231,0.451-1.234,0.217-1.454   c-0.219-0.203-0.789-0.045-1.045-0.237c-0.24-0.179-0.961,0.393-1.232,0.224c-0.255-0.159-0.234-0.726-0.516-0.875   c-0.268-0.142-0.466-0.4-0.755-0.532c-0.276-0.126-0.354-0.736-0.649-0.853c-0.283-0.112-0.854,0.55-1.152,0.447   c-0.287-0.099-0.521-0.325-0.823-0.416c-0.292-0.087-0.494-0.482-0.798-0.562c-0.296-0.077-0.551-0.352-0.857-0.421   c-0.298-0.067-0.453-0.935-0.762-0.995c-0.301-0.058-0.904,1.553-1.214,1.503c-0.304-0.049-0.612,0.073-0.924,0.032   c-0.306-0.04-0.472-1.238-0.784-1.27c-0.307-0.032-0.621-0.106-0.934-0.13c-0.307-0.023-0.643,0.297-0.955,0.281   c-0.307-0.016-0.627,0.379-0.939,0.371c-0.307-0.008-0.607-0.61-0.919-0.61c-0.313,0-0.645-0.6-0.954-0.592   c-0.314,0.008-0.646-0.009-0.955,0.007c-0.313,0.016-0.594,0.685-0.9,0.709c-0.313,0.024-0.574,0.561-0.881,0.592   c-0.311,0.032-0.629-0.078-0.934-0.038c-0.311,0.04-0.732-0.672-1.033-0.624c-0.311,0.049-0.445,1.087-0.746,1.145   c-0.309,0.059-0.633-0.03-0.932,0.037c-0.307,0.069-0.713-0.294-1.008-0.217c-0.305,0.079-0.537,0.406-0.829,0.494   c-0.302,0.091-0.599,0.174-0.886,0.273c-0.299,0.103-0.449,0.555-0.732,0.666c-0.293,0.117-0.846-0.401-1.121-0.276   c-0.288,0.132-0.828-0.195-1.094-0.055c-0.281,0.149-0.434,0.593-0.689,0.751c-0.27,0.168,0.265,1.468,0.025,1.646   c-0.256,0.192-0.685,0.046-0.902,0.249c-0.236,0.219-0.154,0.594-0.342,0.825c-0.203,0.25-1.127-0.075-1.269,0.187   c-0.152,0.28-0.209,0.613-0.289,0.904c-0.083,0.301-0.877,0.62-0.877,0.931c0,0.31,0.385,0.74,0.467,1.04   c0.079,0.29,1.512-0.018,1.664,0.261c0.136,0.248,0.217,0.359,0.398,0.584c-0.036,0.008-0.071,0.019-0.107,0.026   c-0.307,0.059-0.673-0.229-0.964-0.157c-0.304,0.075-0.72-0.234-1.007-0.145c-0.17,0.053-0.298,0.235-0.428,0.404   c-3.848-3.301-8.589-4.809-8.086-5.627c-0.855-1.597-0.507-3.351-0.547-3.282c-0.168,0.016,0.024-3.067,3.492-6.414   c0.013-0.002,0.028,0.003,0.039-0.002c0.08-0.038,0.142-0.116,0.197-0.208c1.549-1.442,3.7-2.922,6.715-4.214   c0.354-0.198,0.686-0.416,1.002-0.65c0.182,0.036,0.375,0.064,0.539,0.141c0.259,0.12,0.471,0.443,0.766,0.55   c0.27,0.098,0.639-0.021,0.936,0.064c0.28,0.08,0.681-0.308,0.982-0.241c0.285,0.064,0.447,0.788,0.75,0.839   c0.289,0.049,0.689-0.626,0.992-0.589c0.293,0.036,0.535,0.536,0.839,0.561c0.294,0.023,0.605-0.177,0.907-0.165   c0.295,0.012,0.589,0.391,0.892,0.391c0.304,0,0.6-0.342,0.896-0.354c0.304-0.012,0.615,0.167,0.91,0.144   c0.304-0.024,0.622,0.087,0.915,0.051c0.303-0.037,0.617-0.039,0.907-0.088c0.302-0.052,0.608-0.115,0.893-0.178   c0.301-0.067,0.592-0.189,0.871-0.269c0.297-0.085,0.402-0.715,0.672-0.813c0.294-0.106,0.558-0.173,0.816-0.293   c0.286-0.134,0.512-0.263,0.75-0.413c0.273-0.169,0.678-0.08,0.881-0.267c0.239-0.22,0.575-0.364,0.71-0.603   c0.154-0.274-0.255-0.638-0.255-0.932c0-0.292-0.03-0.408-0.184-0.682c-0.133-0.239-0.365-0.264-0.605-0.484   c-0.204-0.188-0.245-0.507-0.517-0.678c-0.24-0.15-0.465-0.301-0.752-0.435c-0.26-0.121-0.59-0.023-0.884-0.129   c-0.27-0.098-0.397-0.626-0.694-0.711c-0.279-0.08-0.555-0.224-0.855-0.291c-0.286-0.064-0.539-0.385-0.842-0.437   c-0.291-0.049-0.704,0.734-1.008,0.697c-0.292-0.036-0.502-0.902-0.807-0.927c-0.293-0.023-0.636,0.694-0.939,0.683   c-0.295-0.012-0.579-0.354-0.882-0.354c-0.304,0-0.616-0.363-0.913-0.351c-0.305,0.012-0.554,0.831-0.849,0.854   c-0.304,0.024-0.616-0.236-0.909-0.2c-0.303,0.038-0.641-0.214-0.931-0.165c-0.052,0.009-0.101,0.029-0.151,0.042   c0.733-2.886,0.418-5.844-0.689-7.52c-0.644-1.417-1.35-2.51-1.998-3.311c0.022-0.007,0.044-0.021,0.066-0.024   c0.297-0.041,0.607-0.003,0.891-0.063c0.295-0.062,0.51-0.408,0.786-0.489c0.29-0.086,0.698,0.19,0.965,0.084   c0.282-0.111,0.441-0.489,0.694-0.62c0.27-0.14,0.719,0.011,0.952-0.149c0.253-0.173,0.372-0.542,0.577-0.736   c0.223-0.211,0.713-0.248,0.873-0.479c0.174-0.25-0.275-0.836-0.184-1.106c0.096-0.28,0.176-0.49,0.176-0.787   c0-0.296,0.577-0.729,0.481-1.009c-0.093-0.27-0.796-0.287-0.968-0.537c-0.16-0.233-0.039-0.734-0.263-0.945   c-0.205-0.194-0.589-0.224-0.841-0.397c-0.234-0.16-0.457-0.382-0.727-0.521c-0.254-0.131-0.586-0.124-0.868-0.234   c-0.267-0.105-0.63,0.1-0.92,0.015c-0.276-0.082-0.399-0.802-0.694-0.864c-0.283-0.06-0.602-0.073-0.9-0.113   c-0.287-0.039-0.643,0.573-0.942,0.553c-0.29-0.019-0.561-0.595-0.859-0.595c-0.3,0-0.626-0.249-0.917-0.23   c-0.299,0.02-0.553,0.583-0.842,0.622c-0.297,0.04-0.506,0.446-0.789,0.506c-0.295,0.063-0.598-0.042-0.874,0.04   c-0.29,0.085-0.78-0.419-1.047-0.314c-0.282,0.111-0.281,0.834-0.534,0.965c-0.27,0.139-0.398,0.408-0.632,0.568   c-0.253,0.173-0.671,0.055-0.876,0.249c-0.223,0.21-0.443,0.389-0.603,0.621c-0.174,0.25-0.634,0.387-0.727,0.657   c-0.096,0.28,0.548,0.667,0.548,0.964c0,0.296-0.748,0.717-0.652,0.997c0.092,0.27,0.966,0.157,1.139,0.407   c0.16,0.232,0.317,0.365,0.54,0.576c0.205,0.194,0.308,0.439,0.561,0.613c0.234,0.161,0.428,0.337,0.699,0.477   c0.254,0.131,0.306,0.726,0.588,0.836c0.268,0.105,0.764-0.465,1.055-0.38c0.275,0.082,0.387,0.816,0.681,0.878   c0.284,0.06,0.573,0.245,0.87,0.286c0.288,0.039,0.625-0.209,0.924-0.19c0.204,0.014,0.412-0.084,0.622-0.144   c0.241,0.903,0.578,2.121,0.803,3.46c-0.103-0.026-0.206-0.049-0.305-0.092c-0.269-0.119-0.45-0.488-0.747-0.591   c-0.28-0.098-0.624-0.032-0.927-0.114c-0.287-0.078-0.597-0.085-0.901-0.148c-0.293-0.061-0.629,0.155-0.937,0.109   c-0.297-0.044-0.504-0.876-0.813-0.906c-0.299-0.029-0.633,0.121-0.941,0.106c-0.301-0.015-0.619-0.009-0.927-0.009   c-0.309,0-0.624,0.072-0.926,0.086c-0.309,0.015-0.61,0.176-0.91,0.205c-0.308,0.03-0.653-0.194-0.949-0.15   c-0.308,0.046-0.573,0.351-0.866,0.412c-0.306,0.064-0.723-0.292-1.009-0.215c-0.302,0.082-0.55,0.402-0.829,0.499   c-0.296,0.103-0.464,0.529-0.732,0.648c-0.29,0.128-0.684,0.041-0.936,0.186c-0.277,0.16-0.687,0.171-0.915,0.348   c-0.254,0.198,0.05,0.966-0.137,1.184c-0.21,0.245-0.983,0.121-1.098,0.386c-0.124,0.286,0.226,0.729,0.226,1.032   c0,0.303,0.343,0.443,0.466,0.729c0.114,0.264-0.444,0.987-0.235,1.231c0.187,0.218,0.699,0.21,0.954,0.408   c0.228,0.178,0.325,0.656,0.603,0.815c0.253,0.146,0.58,0.279,0.87,0.407c0.269,0.12,0.88-0.6,1.177-0.497   c0.279,0.097,0.282,1.13,0.584,1.212c0.287,0.078,0.814-0.798,1.119-0.735c0.293,0.061,0.432,1.034,0.739,1.08   c0.296,0.044,0.692-0.621,1.001-0.591c0.299,0.029,0.604-0.181,0.912-0.167c0.301,0.014,0.584,0.486,0.892,0.486   c0.31,0,0.625,0.183,0.927,0.168c0.31-0.015,0.561-0.684,0.861-0.713c0.309-0.03,0.715,0.781,1.011,0.737   c0.308-0.046,0.541-0.537,0.834-0.597c0.306-0.063,0.733,0.358,1.021,0.281c0.302-0.082,0.338-1.005,0.617-1.102   c0.146-0.051,0.373,0.103,0.598,0.257c-0.638,1.167-1.686,2.157-3.344,2.792c-1.393,0.471-3.279,1.197-5.189,2.138   c-0.234-0.081-0.475-0.148-0.724-0.227c-0.277-0.087-0.507-0.37-0.804-0.447c-0.282-0.074-0.639,0.141-0.938,0.077   c-0.286-0.061-0.564-0.158-0.864-0.209c-0.289-0.049-0.64,0.358-0.939,0.318c-0.292-0.039-0.537-0.374-0.839-0.403   c-0.293-0.028-0.544-0.637-0.846-0.656c-0.295-0.019-0.604-0.038-0.904-0.047c-0.297-0.009-0.605,0.05-0.907,0.05   c-0.302,0-0.599,0.346-0.895,0.355c-0.302,0.009-0.64-0.634-0.936-0.615c-0.302,0.019-0.552,0.721-0.845,0.75   c-0.303,0.029-0.648-0.343-0.94-0.305c-0.3,0.04-0.493,0.744-0.781,0.794c-0.3,0.051-0.531,0.321-0.817,0.382   c-0.297,0.063-0.845-0.969-1.127-0.896c-0.295,0.077-0.481,0.567-0.758,0.654c-0.293,0.092-0.331,0.845-0.601,0.948   c-0.289,0.111-0.925-0.646-1.185-0.524c-0.282,0.132-0.294,0.764-0.538,0.908c-0.271,0.159-0.592,0.187-0.814,0.359   c-0.25,0.195-0.766,0.124-0.949,0.333c-0.211,0.24,0.176,0.85,0.061,1.105c-0.126,0.281,0.089,0.441,0.089,0.737   c0,0.294,0.051,0.336,0.176,0.616c0.113,0.255-0.794,1.202-0.585,1.441c0.183,0.21,1.163-0.353,1.414-0.157   c0.223,0.174,0.211,0.681,0.483,0.841c0.244,0.145,0.654-0.02,0.936,0.113c0.259,0.122,0.278,0.842,0.566,0.953   c0.27,0.104,0.744-0.335,1.038-0.243c0.277,0.088,0.66-0.24,0.957-0.163c0.282,0.074,0.42,0.725,0.719,0.788   c0.286,0.06,0.633-0.204,0.933-0.153c0.289,0.05,0.46,0.925,0.761,0.965c0.291,0.039,0.619-0.075,0.92-0.045   c0.293,0.028,0.635-0.461,0.936-0.442c0.295,0.02,0.599-0.306,0.899-0.297c0.023,0.001,0.047,0.005,0.07,0.007   c-1.508,2.694-1.73,4.895-1.726,4.84c0.052-0.016-0.024,0.283-0.092,0.835c-0.3-0.046-0.675,0.308-0.983,0.265   c-0.305-0.043-0.593-0.268-0.905-0.3c-0.306-0.032-0.632,0.095-0.945,0.073c-0.307-0.021-0.645,0.787-0.957,0.776   c-0.308-0.01-0.592-1.355-0.904-1.355c-0.313,0-0.604,1.131-0.913,1.141c-0.313,0.011-0.596,0.133-0.903,0.154   c-0.314,0.021-0.605-0.018-0.909,0.014c-0.313,0.032-0.594,0.099-0.898,0.142c-0.311,0.044-0.854-1.38-1.155-1.326   c-0.309,0.055-0.378,1.333-0.677,1.399c-0.307,0.068-0.603,0.091-0.898,0.169c-0.305,0.082-0.64-0.005-0.93,0.087   c-0.302,0.096-0.718-0.159-1.003-0.052c-0.297,0.111-0.287,0.925-0.564,1.048c-0.291,0.128-1.109-0.854-1.377-0.714   c-0.283,0.147-0.32,0.767-0.576,0.926c-0.27,0.168-0.176,0.827-0.415,1.008c-0.255,0.193-1.24-0.468-1.456-0.263   c-0.232,0.222,0.311,1.169,0.126,1.404c-0.198,0.252-1.161,0.021-1.301,0.287C129.471,50.679,129.722,51.199,129.645,51.493z"/><path d="M192.785,73.995h-59.193c-0.23,0.48-0.717,0.814-1.285,0.814c-0.215,0-0.417-0.051-0.6-0.135v3.248h61.078V73.995z"/><polygon points="183.906,94.866 189.71,79.927 133.687,79.927 139.488,94.866  "/><path d="M5,138.935h3.326l19.028,25.578l-20.397,27.42H20.25L34,173.448l13.75,18.484h13.293l-20.395-27.42l19.026-25.578H63   c2.762,0,5-2.238,5-5v-2.666h15.182l-12.615,48.698c-1.731,6.683,2.283,13.504,8.965,15.235c1.051,0.272,2.105,0.402,3.144,0.402   c5.56,0.001,10.634-3.736,12.093-9.368l14.824-57.225l-0.002,63.921h14.947v-71.801h79.391v71.801h14.945l0.002-85.855h6.9v-6.406   H102.689v6.072c-1.081-0.3-2.204-0.475-3.355-0.475H55.235c1.513-8.479,4.194-16.977,6.927-24.696   c-1.709-1.307-3.143-2.572-4.278-3.682c-6.735-6.517-9.747-12.873-10.729-15.302c-2.01-5.227,0.568-11.023,5.713-13.004   c1.152-0.442,2.359-0.667,3.586-0.667c4.1,0,7.85,2.572,9.329,6.399l0.147,0.313c0.186,0.384,0.514,1.023,0.989,1.81   c0.521,0.868,1.274,1.997,2.271,3.234c0.931-7.595-1.648-15.179-7.731-17.738c-8.108-3.41-21.049-0.729-28.268,12.969   c-9.819,18.893-13.279,31.645-14.131,53.994c0.248,6.514,2.083,10.958,4.769,14.037H5c-2.761,0-5,2.238-5,5v5   C0,136.696,2.239,138.935,5,138.935z M34,166.935c-1.75,0-3.166-1.418-3.166-3.166c0-1.75,1.416-3.166,3.166-3.166   c1.749,0,3.167,1.416,3.167,3.166C37.167,165.517,35.749,166.935,34,166.935z M34,155.577l-12.379-16.643h24.758L34,155.577z"/><ellipse transform="matrix(0.3735 -0.9276 0.9276 0.3735 26.9613 84.9196)" cx="76.347" cy="22.5" rx="22.494" ry="22.495"/><path d="M105.604,71.685c0.362-0.411,0.854-0.712,1.434-0.813c0.591-0.102,1.164,0.023,1.647,0.298   c0.424-0.055,0.849-0.092,1.272-0.092c4.766,0,8.89,3.4,9.805,8.086c0.715,3.668-0.687,7.263-3.345,9.529   c2.218,0.104,4.314-1.28,4.991-3.502c0.632-2.074-0.052-3.023-0.052-3.023c-0.965-1.339-1.359-3.726-0.877-5.303l0.445-1.463   c0.482-1.579,2.207-3.1,3.833-3.381l9.716-1.68c1.627-0.282,2.829-1.248,2.674-2.148c-0.154-0.899-1.611-1.406-3.237-1.124   l-8.065,1.394c-1.627,0.281-2.562-0.779-2.081-2.357l2.392-7.826c0.482-1.579,0.162-3.088-0.712-3.355   c-0.872-0.267-1.981,0.807-2.464,2.385l-2.881,9.432c-0.482,1.578-2.206,3.099-3.832,3.38l-1.508,0.261   c-1.625,0.281-3.943-0.408-5.151-1.533c0,0-0.858-0.797-2.993-0.428c-1.993,0.345-3.493,1.831-3.968,3.67   C103.62,71.979,104.605,71.844,105.604,71.685z"/><path d="M64.123,56.483c-0.104-0.219-0.171-0.371-0.203-0.447l-0.003,0.001c-1.589-4.116-6.214-6.168-10.331-4.585   c-4.125,1.585-6.183,6.214-4.598,10.338v-0.002c0.282,0.694,2.977,7.592,10.293,14.669c7.217,7.051,19.428,14.018,36.779,14.018   c0.079,0,0.158,0,0.236-0.001c4.695,0,9.752-0.485,15.184-1.545c4.334-0.845,7.164-5.047,6.319-9.382   c-0.847-4.337-5.047-7.167-9.384-6.32c-4.5,0.877-8.524,1.247-12.119,1.247c-13.309-0.064-20.941-4.844-25.914-9.539   c-2.451-2.36-4.143-4.741-5.178-6.465C64.686,57.61,64.332,56.918,64.123,56.483z"/></g><text x="0" y="210.605" fill="#000000" font-size="5px" font-weight="bold" font-family="'Helvetica Neue', Helvetica, Arial-Unicode, Arial, Sans-serif">Created by Gan Khoon Lay</text><text x="0" y="215.605" fill="#000000" font-size="5px" font-weight="bold" font-family="'Helvetica Neue', Helvetica, Arial-Unicode, Arial, Sans-serif">from the Noun Project</text></svg>