<svg height='100px' width='100px'  fill="#000000" xmlns="http://www.w3.org/2000/svg" viewBox="0 0 90.24 74" x="0px" y="0px"><title>Asset 46</title><g data-name="Layer 2"><g data-name="Layer 1"><path d="M88.44,0H1.8A1.8,1.8,0,0,0,0,1.8V61.37a1.8,1.8,0,0,0,1.8,1.8H34.14l-.6,7.22H25.27a1.8,1.8,0,1,0,0,3.61H65a1.8,1.8,0,0,0,0-3.61H56.71l-.6-7.22H88.44a1.8,1.8,0,0,0,1.8-1.8V1.8A1.8,1.8,0,0,0,88.44,0ZM53.09,70.39H37.16l.6-7.22H52.49ZM86.63,59.56h-83V51.44h83ZM42.87,55.5a2.26,2.26,0,1,1,2.26,2.26A2.26,2.26,0,0,1,42.87,55.5Z"></path></g></g></svg>